<svg width="36" height="36"
    xmlns="http://www.w3.org/2000/svg" viewBox="0 0 36 36" title="Budibase" shape-rendering="geometricPrecision">
    <path class="st0" d="M28.5 17.1c.1.1.2.2.3.4-.1-.1-.2-.2-.3-.4zm-1.7-1.2c-.6-.3-1.2-.4-1.8-.4.6.0 1.3.1 1.8.4zM24 15.5c.3.0.6-.1.9.0-.3-.1-.6-.1-.9.0zM23 15.7c.3-.1.6-.2.9-.2-.3.0-.6.1-.9.2zm6.6 3.4v.2-.2zM29.2 18.1s0 .1.1.1c-.1.0-.1-.1-.1-.1zm-3.9 8.8h-.1.1zm4.6-6.8c.1.3.1.7.1 1-.1-.3-.1-.6-.1-1zM24.3 27h-.4.4zM23.7 26.9c-.1.0-.2.0-.3-.1.1.1.2.1.3.1zM24.8 27h-.4.4zM9.7 25.4c.5.7 1.2 1.1 1.9 1.3-.7-.2-1.4-.6-1.9-1.3zm11.7-5.2c-1.2 2.9 3.1 4.9 4.4 1.9 1.3-2.9-3.1-4.9-4.4-1.9zm-11.6.0c-1.2 2.9 3.1 4.9 4.4 1.9 1.2-2.9-3.1-4.9-4.4-1.9zm18.5 5.2c.6-.5 1-1.2 1.2-1.9-.3.7-.6 1.3-1.1 1.9.0-.1.0.0-.1.0zM23 15.7c-.6.2-1.1.6-1.6 1v.1c.4-.5 1-.8 1.6-1.1zm7 5.5c0 .7-.1 1.3-.3 2 .1-.7.3-1.3.3-2zm-8.7 5.4h.1v-1.1l-.1-.1v1.2zM15.1 15.8c-1-.4-2.1-.5-3.2-.3 1.1-.3 2.2-.2 3.2.3zM14.9 26.6c1.2-.4 2.2-1.3 2.8-2.4-.6 1.1-1.7 2-2.8 2.4z"></path>
    <path d="M33 0H3C1.3.0.0 1.3.0 3v30c0 1.7 1.3 3 3 3h30c1.7.0 3-1.3 3-3V3c0-1.7-1.3-3-3-3zm-3.4 23.4c-.2.8-.7 1.4-1.2 2-.8.8-1.9 1.4-3 1.5H23.8c-.1.0-.2.0-.3-.1-.8-.2-1.5-.7-2-1.4v1.2h-3.7v-2.4c-.5 1.1-1.6 2-2.8 2.4-1.1.4-2.2.5-3.2.2-.7-.2-1.4-.7-1.9-1.3v1.2H6V8.9h3.7v7.8c.6-.7 1.4-1.1 2.2-1.3 1-.2 2.2-.1 3.2.3.2.1.4.2.5.2.9.5 1.6 1.2 2 2v-9h3.6v7.9l.1-.1c.5-.5 1-.8 1.6-1 .3-.1.6-.2.9-.2h1.1c.6.0 1.2.2 1.8.4.7.3 1.2.7 1.7 1.3.1.1.2.2.3.4s.3.4.4.6c0 0 0 .1.1.1.2.3.3.6.4.9v.2c.1.3.2.6.2.9.1.3.1.7.1 1v.1c0 .7-.1 1.3-.3 2 0-.1.0-.1.0.0z"></path>
    <path d="M25.3 19.5c-2.3-2.3-5.6 1.2-3.4 3.5 2.4 2.2 5.6-1.2 3.4-3.5zm-11.6.0c-2.3-2.3-5.6 1.2-3.4 3.5 2.3 2.2 5.6-1.2 3.4-3.5z"></path>
</svg>