<svg width="96" height="96" viewBox="0 0 96 96" fill="none" xmlns="http://www.w3.org/2000/svg">
<g clip-path="url(#clip0_2_49)">
<circle cx="48" cy="48" r="48" fill="url(#paint0_linear_2_49)"/>
<path fill-rule="evenodd" clip-rule="evenodd" d="M24.8824 90.0765L48 59L71.1176 90.0765C64.2604 93.852 56.3811 96 48 96C39.6189 96 31.7396 93.852 24.8824 90.0765Z" fill="white" fill-opacity="0.7"/>
<path fill-rule="evenodd" clip-rule="evenodd" d="M40.8752 95.4749C17.7444 92.033 0 72.0887 0 48C0 45.7375 0.156534 43.5116 0.459364 41.3324L40.8752 95.4749Z" fill="white" fill-opacity="0.7"/>
<path fill-rule="evenodd" clip-rule="evenodd" d="M55.1248 95.4749C78.2556 92.033 96 72.0887 96 48C96 45.7375 95.8435 43.5116 95.5406 41.3324L55.1248 95.4749Z" fill="white" fill-opacity="0.7"/>
<path fill-rule="evenodd" clip-rule="evenodd" d="M28.6867 4.04369L64.5 52L87.6721 20.971C79.0299 8.31069 64.4855 0 48 0C41.1295 0 34.5962 1.44347 28.6867 4.04369Z" fill="white" fill-opacity="0.7"/>
<path fill-rule="evenodd" clip-rule="evenodd" d="M8.32785 20.971L31.5 52L67.3133 4.0437C61.4038 1.44347 54.8705 0 48 0C31.5145 0 16.9701 8.31069 8.32785 20.971Z" fill="white" fill-opacity="0.7"/>
</g>
<defs>
<linearGradient id="paint0_linear_2_49" x1="0" y1="0" x2="96" y2="96" gradientUnits="userSpaceOnUse">
<stop stop-color="#DEF2FE"/>
<stop offset="1" stop-color="#62ACF1"/>
</linearGradient>
<clipPath id="clip0_2_49">
<rect width="96" height="96" fill="white"/>
</clipPath>
</defs>
</svg>
